<svg xmlns="http://www.w3.org/2000/svg" version="1.1" xmlns:xlink="http://www.w3.org/1999/xlink" xmlns:svgjs="http://svgjs.dev/svgjs" width="2000" height="1247" viewBox="0 0 2000 1247"><g transform="matrix(1,0,0,1,-1.2121212121212466,0.5048582995954121)"><svg viewBox="0 0 396 247" data-background-color="#ffffff" preserveAspectRatio="xMidYMid meet" height="1247" width="2000" xmlns="http://www.w3.org/2000/svg" xmlns:xlink="http://www.w3.org/1999/xlink"><g id="tight-bounds" transform="matrix(1,0,0,1,0.2400000000000091,-0.09999999999999432)"><svg viewBox="0 0 395.52 247.2" height="247.2" width="395.52"><g><svg></svg></g><g><svg viewBox="0 0 395.52 247.2" height="247.2" width="395.52"><g transform="matrix(1,0,0,1,75.54432,111.61879011559826)"><svg viewBox="0 0 244.43135999999998 23.96241976880348" height="23.96241976880348" width="244.43135999999998"><g><svg viewBox="0 0 244.43135999999998 23.96241976880348" height="23.96241976880348" width="244.43135999999998"><g><svg viewBox="0 0 244.43135999999998 23.96241976880348" height="23.96241976880348" width="244.43135999999998"><g><svg viewBox="0 0 244.43135999999998 23.96241976880348" height="23.96241976880348" width="244.43135999999998"><g id="textblocktransform"><svg viewBox="0 0 244.43135999999998 23.96241976880348" height="23.96241976880348" width="244.43135999999998" id="textblock"><g><svg viewBox="0 0 244.43135999999998 23.96241976880348" height="23.96241976880348" width="244.43135999999998"><g transform="matrix(1,0,0,1,0,0)"><svg width="244.43135999999998" viewBox="1.9 -32.3 333.02000000000004 32.65" height="23.96241976880348" data-palette-color="#97978d"><path d="M16.1-32.3Q21.15-32.3 24.85-29.9L24.85-29.9 24.05-26.25 23.6-26.15Q20.25-28.95 15.9-28.95L15.9-28.95Q11.15-28.95 8.6-25.68 6.05-22.4 6.05-16.1L6.05-16.1Q6.05-9.75 8.6-6.4 11.15-3.05 15.8-3.05L15.8-3.05Q18-3.05 20.18-3.85 22.35-4.65 24.15-6.1L24.15-6.1 24.65-5.85 24.3-2.05Q19.95 0.35 15.45 0.35L15.45 0.35Q9 0.35 5.45-3.83 1.9-8 1.9-15.75L1.9-15.75Q1.9-23.7 5.6-28 9.3-32.3 16.1-32.3L16.1-32.3ZM51.35-24.9L51.2-7.8 51.3 0 47.6 0 47.75-7.5 47.7-10.9 34.15-10.85 34.1-7.8 34.2 0 30.5 0 30.65-7.5 30.5-24.9 34.25-24.9 34.15-14.2 40.9-14.15 47.7-14.2 47.6-24.9 51.35-24.9ZM71.75-10.05Q74.8-5.4 78.5-0.9L78.5-0.9 78.45-0.4Q76.34 0.25 75 0.35L75 0.35 74.34-0.05Q70.55-5.8 68.59-9.1L68.59-9.1 63.9-9.05 63.9-7.8 64 0 60.3 0 60.45-7.5 60.3-24.9 68.8-24.95Q72.75-24.95 74.87-23.1 77-21.25 77-17.75L77-17.75Q77-15.2 75.62-13.2 74.25-11.2 71.75-10.05L71.75-10.05ZM64-21.9L63.95-12.15 68.65-12Q73.09-13.25 73.09-17.45L73.09-17.45Q73.09-19.65 71.8-20.75 70.5-21.85 67.84-21.95L67.84-21.95 64-21.9ZM88.84-24.9L88.69-7.8 88.79 0 85.09 0 85.24-7.5 85.09-24.9 88.84-24.9ZM105.39-25.15Q108.44-25.15 111.49-23.95L111.49-23.95 110.84-20.25 110.24-20.1Q108.84-21.2 107.59-21.73 106.34-22.25 104.99-22.25L104.99-22.25Q102.84-22.25 101.59-21.13 100.34-20 100.34-18.55L100.34-18.55Q100.34-17.1 101.57-16.2 102.79-15.3 105.34-14.2L105.34-14.2Q107.59-13.2 108.92-12.4 110.24-11.6 111.22-10.28 112.19-8.95 112.19-7.05L112.19-7.05Q112.19-5.1 111.14-3.43 110.09-1.75 108.07-0.73 106.04 0.3 103.24 0.3L103.24 0.3Q101.49 0.3 99.57-0.13 97.64-0.55 95.99-1.4L95.99-1.4 96.44-5.35 96.94-5.55Q98.34-4.15 100.22-3.38 102.09-2.6 103.69-2.6L103.69-2.6Q105.79-2.6 107.14-3.73 108.49-4.85 108.49-6.45L108.49-6.45Q108.49-7.95 107.27-8.85 106.04-9.75 103.44-10.95L103.44-10.95Q101.29-11.9 99.92-12.7 98.54-13.5 97.59-14.83 96.64-16.15 96.64-18.05L96.64-18.05Q96.64-20.05 97.72-21.65 98.79-23.25 100.77-24.2 102.74-25.15 105.39-25.15L105.39-25.15ZM134.04-24.9L134.24-24.6 133.99-21.45 129.34-21.8 126.84-21.8 126.69-7.8 126.84 0 123.09 0 123.24-7.5 123.14-21.8 120.64-21.8 115.89-21.45 115.59-21.8 115.89-24.9 134.04-24.9ZM144.09-24.9L143.94-7.8 144.03 0 140.34 0 140.49-7.5 140.34-24.9 144.09-24.9ZM174.08-25L173.93-7.45 173.98 0 169.98 0 156.88-19 156.63-19 156.58-8.3 156.68 0 153.28 0 153.43-7.35 153.33-24.9 157.28-24.9 170.38-5.9 170.73-5.9 170.63-24.75 174.08-25ZM220.08-32.05L223.23 0 219.63 0 218.88-9.75 217.18-25.7 216.83-25.7 207.93-3.7 204.63-3.7 196.18-25.7 195.78-25.7 194.08-10.05 193.23 0 189.83 0 193.18-32.05 197.73-32.05 199.38-27.15 206.33-8.9 206.63-8.9 213.93-27.45 215.58-32.05 220.08-32.05ZM241.43-24.9L250.18 0 246.43 0 245.83-2.7 244.53-6.4 238.58-6.45 233.28-6.4 231.93-2.9 231.23 0 227.53 0 237.13-24.9 241.43-24.9ZM238.88-9.4L243.48-9.45 239.33-21.25 239.03-21.25 234.48-9.45 238.88-9.4ZM267.82-10.05Q270.87-5.4 274.57-0.9L274.57-0.9 274.52-0.4Q272.42 0.25 271.07 0.35L271.07 0.35 270.42-0.05Q266.62-5.8 264.67-9.1L264.67-9.1 259.97-9.05 259.97-7.8 260.07 0 256.37 0 256.52-7.5 256.37-24.9 264.87-24.95Q268.82-24.95 270.95-23.1 273.07-21.25 273.07-17.75L273.07-17.75Q273.07-15.2 271.7-13.2 270.32-11.2 267.82-10.05L267.82-10.05ZM260.07-21.9L260.02-12.15 264.72-12Q269.17-13.25 269.17-17.45L269.17-17.45Q269.17-19.65 267.87-20.75 266.57-21.85 263.92-21.95L263.92-21.95 260.07-21.9ZM294.87-24.9L295.07-24.6 294.82-21.45 290.17-21.8 287.67-21.8 287.52-7.8 287.67 0 283.92 0 284.07-7.5 283.97-21.8 281.47-21.8 276.72-21.45 276.42-21.8 276.72-24.9 294.87-24.9ZM304.92-24.9L304.77-7.8 304.87 0 301.17 0 301.32-7.5 301.17-24.9 304.92-24.9ZM334.92-25L334.76-7.45 334.81 0 330.81 0 317.72-19 317.47-19 317.42-8.3 317.51 0 314.12 0 314.26-7.35 314.17-24.9 318.12-24.9 331.22-5.9 331.56-5.9 331.47-24.75 334.92-25Z" opacity="1" transform="matrix(1,0,0,1,0,0)" fill="#ffffff" class="wordmark-text-0" data-fill-palette-color="primary" id="text-0"></path></svg></g></svg></g></svg></g></svg></g></svg></g></svg></g></svg></g><g><path d="M245.816 0c68.262 0 123.6 55.338 123.6 123.6 0 68.262-55.338 123.6-123.6 123.6-63.251 0-115.405-47.51-122.722-108.79h1.088c7.311 60.682 58.98 107.71 121.634 107.71 67.666 0 122.52-54.854 122.519-122.52 0-67.666-54.854-122.52-122.519-122.52-62.653 0-114.322 47.028-121.634 107.71h-1.088c7.317-61.28 59.471-108.79 122.722-108.79z" fill="#ffffff" stroke="transparent" data-fill-palette-color="tertiary"></path></g></svg></g><defs></defs></svg><rect width="395.52" height="247.2" fill="none" stroke="none" visibility="hidden"></rect></g></svg></g></svg>