<svg width="250" height="250" viewBox="0 0 200 200" xmlns:xlink="http://www.w3.org/1999/xlink" xmlns="http://www.w3.org/2000/svg"><defs><radialGradient xlink:href="#a" id="g" gradientUnits="userSpaceOnUse" gradientTransform="matrix(.9152 -.01542 .01686 1.0005 3.75 .866)" cx="58.459" cy="71.61" fx="58.459" fy="71.61" r="41.855"/><radialGradient xlink:href="#a" id="i" cx="58.459" cy="71.61" fx="58.459" fy="71.61" r="41.855" gradientTransform="matrix(.9152 -.01542 .01686 1.0005 3.75 .866)" gradientUnits="userSpaceOnUse"/><radialGradient xlink:href="#b" id="k" cx="120.575" cy="91.125" fx="120.575" fy="91.125" r="44.267" gradientTransform="matrix(1 0 0 .9993 2.24 -.384)" gradientUnits="userSpaceOnUse"/><radialGradient xlink:href="#a" id="c" gradientUnits="userSpaceOnUse" gradientTransform="matrix(-.17797 -.31996 .34979 -.19456 45.081 198.476)" cx="58.459" cy="71.61" fx="58.459" fy="71.61" r="41.855"/><radialGradient xlink:href="#a" id="d" gradientUnits="userSpaceOnUse" gradientTransform="matrix(.0655 -.26667 .29152 .07161 34.744 176.341)" cx="58.459" cy="71.61" fx="58.459" fy="71.61" r="41.855"/><radialGradient xlink:href="#a" id="e" gradientUnits="userSpaceOnUse" gradientTransform="matrix(.20148 -.10849 .1186 .22026 38.973 156.338)" cx="58.459" cy="71.61" fx="58.459" fy="71.61" r="41.855"/><radialGradient xlink:href="#a" id="f" gradientUnits="userSpaceOnUse" gradientTransform="matrix(.18255 -.0137 .01498 .19957 47.481 152.172)" cx="58.459" cy="71.61" fx="58.459" fy="71.61" r="41.855"/><linearGradient id="a"><stop style="stop-color:#686868;stop-opacity:1" offset=".043"/><stop style="stop-color:#ececec;stop-opacity:0" offset=".945"/></linearGradient><linearGradient id="b"><stop style="stop-color:#ca36ca;stop-opacity:1" offset=".238"/><stop style="stop-color:#ff98ff;stop-opacity:.09433963" offset=".793"/></linearGradient></defs><path style="fill:url(#c);stroke-width:.105833" d="m61.136 150.676-3.306-2.12 9.987 3.791-7.975-3.571 7.505 1.588-4.027 5.478 5.94-3.449-4.012 9.174 7.569-10.93-10.965 9.207 12.455-1.721-7.057 3.69 5.424-1.218-6.673.8 7.252-7.637-1.2 15.225 1.582-3.569-3.511 5.665 10.294 4.466-11.823-5.864 2.845-6.372-.703 10.868 3.404 3.158-8.366-9.056 12.063 17.268-11.192-18.893 7.23 15.788-8.003-9.654 1.343 8.387.162-5.066-2.507 7.336-4.509-10.853 3.28 14.66.917-10.502-5.062-1.878.746-.086-2.818 1.549.382-3.372-3.95 7.94 5.684-8.65-10.069 9.806 11.024-4.414-7.648.989 7.772.106-14.06 2.835 5.658-15.19-5.89 7.879.185-10.35 1.123 10.718 6.176-6.18-16.051-8.209 12.054 9.956-7.771-4.119 7.743-3.127-10.042-.854 15.069-.233-10.3-5.23 5.999-.698-3.205.404 9.808 6.917-9.631-9.764.737-3.158-2.325-3.378 8.182 11.052-2.042-8.208 1.697 1.556-.369-3.128 4.688 10.809-6.946-18.91 10.796 22.465z" transform="matrix(1.2681 0 0 1.2681 -7.622 -108.746)"/><path style="fill:url(#d);stroke-width:.0793749" d="m67.964 158.268-.735-2.853 3.553 7.181-2.56-6.033 3.314 4.703-5.009.955 5.025 1.137-6.888 2.994 9.738-2.144-10.724-.537 7.723 5.411-5.762-1.574 3.603 2.1-4.076-2.966 7.883-.496-8.43 7.754 2.69-1.154-4.82 1.321 3.378 7.709-3.505-9.257 4.816-2.05-5.933 5.613.258 3.474.025-9.247-2.184 15.646 3.492-16.095-4.085 12.366.53-9.39-3.543 5.296 2.675-2.702-5.122 2.752 3.061-8.265-5.68 9.73 5.864-5.304-1.823-3.616.454.334-2.339-.587 1.93-1.658-6.223 2.347 7.54-1.853-10.54.25 8.312 3.201-4.707-3.36 4.216 4.025-9.173-5.618 10.861-5.459-7.257 1.323 5.384-5.593-4.853 6.463 6.548-.244-4.631-12.704 1.543 11.624-2.169-6.23 5.851 2.234-5.082-5.595 8.4 7.563-2.99-8.13 3.652 2.677-1.968-1.414 1.86 8.808-.31-10.282 2.018-1.359.446-3.043-1.144 10.25 3.066-5.553.14 1.721 1.393-1.907L62 161.29l5.834-13.936-5.533 17.855z" transform="matrix(1.2681 0 0 1.2681 -7.622 -108.746)"/><path style="fill:url(#e);stroke-width:.0661457" d="m68.707 166.78 1.354-2.048-2.455 6.209 2.3-4.953-1.057 4.676-3.389-2.563 2.105 3.742-5.7-2.586 6.767 4.823-5.66-6.93.969 7.798-2.246-4.442.715 3.4-.443-4.177 4.71 4.597-9.503-.88 2.216 1.019-3.51-2.243-2.88 6.396 3.766-7.339 3.959 1.832-6.786-.532-2.003 2.1 5.73-5.15-10.894 7.39 11.903-6.832-9.929 4.383 6.102-4.918-5.253.767 3.165.144-4.563-1.629 6.82-2.725-9.189 1.924 6.556.663 1.217-3.147.047.467-.944-1.774 2.104.267-4.928-2.537 5.357 3.627-6.042-6.377 2.664 6.927-.553-4.787-.132 4.856-1.652-8.811 9.444 3.666-4.873-3.749 6.467.204-6.709.61 3.81 3.913 5.268-9.961-6.325 7.448 2.64-4.821 1.888 4.866.62-6.269.016 9.42 3.357-6.392.385 3.754-.225-2.006-4.407 6.07 6.185-5.935 1.967.488 2.13-1.425-6.976 5.02 5.147-1.207-.987 1.048 1.958-.204-6.795 2.837 11.876-4.18-14.13 6.556z" transform="matrix(1.2681 0 0 1.2681 -7.622 -108.746)"/><path style="fill:url(#f);stroke-width:.0529166" d="m65.812 169.482 1.656-1.057-3.815 3.739 3.293-2.872-2.294 3.074-1.642-2.976.32 3.42-3.323-3.745 3.374 5.727-1.88-6.908-1.83 6.015-.196-3.978-.584 2.718 1.036-3.197 1.946 4.893-6.66-3.737 1.289 1.467-1.835-2.782-4.186 3.737 5.14-4.138 2.297 2.628-4.786-2.598-2.147.883 5.864-1.898-10.367 1.855 10.923-1.12-8.683-.028 6.06-1.608-4.089-1.15 2.266 1.136-2.804-2.676 5.872.23-7.342-1.586 4.575 2.618 1.913-1.904-.117.357-.112-1.604 1.45.88-2.776-3.457 2.735 4.394-2.34-6.627-.308 5.93 1.155-3.68-1.678 3.506 1.661-6.976 5.708 5.753-2.34-4.326 4.659 2.254-5.101-1.737 1.51 4.099 7.092-5.565-7.046 3.384 3.498-2.664-.204 4.17 2.493-4.378-3.053 6.888 4.533-3.578-.94 2.87.488-1.54-5.196 3.001 6.451-2.324 1.279.997 2.02-.348-6.731 1.397 4.153.794-1.062.445 1.498.488-5.89-.138 10.04.811-12.46.19z" transform="matrix(1.2681 0 0 1.2681 -7.622 -108.746)"/><g><g transform="matrix(.59315 0 0 .59315 32.202 89.795)"><path id="h" style="fill:url(#g);stroke-width:.264583" d="m90.229 92.586 8.573-4.792-20.13 17.553 17.272-13.376L83.6 106.648l-7.334-15.333.606 17.161-15.5-19.656 15.181 29.566-7.38-35.023-10.88 29.49.177-19.91-3.704 13.397 6.096-15.658 8.295 24.989-32.154-20.585 6.004 7.693-8.353-14.416L12.676 105.8l26.86-19.16 10.699 13.781L27.1 86.065 16.124 89.85l29.826-7.776-52.288 6.252 54.846-2.417-43.33-2.663 30.716-6.268-20.077-6.922 10.981 6.326-13.222-14.17 29.242 2.845L6.63 55.014l22.076 14.397 10.106-8.948-.691 1.746-.095-8.037 6.986 4.814L32.158 40.92l12.377 22.726-9.759-33.755-3.256 29.507 6.83-18.027-9.39 17.01L39.274 24.04l26.823 30.373-10.43-22.27 22.603 12.604-24.958-10.153 6.353 20.9 37.012-25.721L60.523 44.62 78.761 32.34l-2.23 20.757L90.247 31.96l-17.24 33.5 23.667-16.544-5.53 14.047 2.886-7.543-26.809 13.475 32.879-9.73 6.093 5.346 10.188-1.148-34.01 5.02 20.504 5.168-5.43 1.91 7.332 2.87-29.356-2.397 49.877 6.964-62.251-2.664z"/><use xlink:href="#h" transform="rotate(-18.166 59.411 71.228)"/><use xlink:href="#h" transform="rotate(51.85 52.854 74.906) scale(.95)"/><use xlink:href="#h" transform="rotate(20.984 37.21 83.707) scale(.9)"/><use xlink:href="#h" transform="rotate(36.423 38.718 79.43) scale(.85)"/><use xlink:href="#h" transform="rotate(84.539 45.634 70.642) scale(.8)"/><use xlink:href="#h" transform="rotate(141.861 48.907 64.892) scale(.75)"/><use xlink:href="#h" transform="rotate(131.69 45.708 64.54) scale(.7)"/><use xlink:href="#h" transform="rotate(121.621 42.05 64.571) scale(.65)"/><use xlink:href="#h" transform="rotate(144.168 42.923 60.824) scale(.6)"/><use xlink:href="#h" transform="rotate(-171.045 47.299 54.155) scale(.55)"/><use xlink:href="#h" transform="rotate(-158.032 48.015 50.538) scale(.5)"/><use xlink:href="#h" transform="rotate(-101.404 59.105 38.269) scale(.45)"/><use xlink:href="#h" transform="rotate(-138.239 49.74 43.06) scale(.4)"/><use xlink:href="#h" transform="rotate(-112.524 55.563 35.183) scale(.35)"/><use xlink:href="#h" transform="rotate(-57.912 83.674 8.717) scale(.3)"/><use xlink:href="#h" transform="rotate(-84.649 66.462 20.054) scale(.25)"/><use xlink:href="#h" transform="rotate(-35.23 125.382 -32.11) scale(.2)"/><use xlink:href="#h" transform="rotate(-1.171 2996.775 -2430.153) scale(.15)"/><use xlink:href="#h" transform="rotate(43.004 -49.374 107.806) scale(.1)"/><use xlink:href="#h" transform="rotate(8.506 -423.767 416.874) scale(.05)"/><path style="fill:url(#i);stroke-width:.264583" d="m90.229 92.586 8.573-4.792-20.13 17.553 17.272-13.376L83.6 106.648l-7.334-15.333.606 17.161-15.5-19.656 15.181 29.566-7.38-35.023-10.88 29.49.177-19.91-3.704 13.397 6.096-15.658 8.295 24.989-32.154-20.585 6.004 7.693-8.353-14.416L12.676 105.8l26.86-19.16 10.699 13.781L27.1 86.065 16.124 89.85l29.826-7.776-52.288 6.252 54.846-2.417-43.33-2.663 30.716-6.268-20.077-6.922 10.981 6.326-13.222-14.17 29.242 2.845L6.63 55.014l22.076 14.397 10.106-8.948-.691 1.746-.095-8.037 6.986 4.814L32.158 40.92l12.377 22.726-9.759-33.755-3.256 29.507 6.83-18.027-9.39 17.01L39.274 24.04l26.823 30.373-10.43-22.27 22.603 12.604-24.958-10.153 6.353 20.9 37.012-25.721L60.523 44.62 78.761 32.34l-2.23 20.757L90.247 31.96l-17.24 33.5 23.667-16.544-5.53 14.047 2.886-7.543-26.809 13.475 32.879-9.73 6.093 5.346 10.188-1.148-34.01 5.02 20.504 5.168-5.43 1.91 7.332 2.87-29.356-2.397 49.877 6.964-62.251-2.664z"/><use xlink:href="#h" transform="rotate(-18.166 60.637 70.34)"/><use xlink:href="#h" transform="rotate(51.85 52.854 74.906) scale(.95)"/><use xlink:href="#h" transform="rotate(20.984 37.21 83.707) scale(.9)"/><use xlink:href="#h" transform="rotate(36.423 38.718 79.43) scale(.85)"/><use xlink:href="#h" transform="rotate(84.539 45.634 70.642) scale(.8)"/><use xlink:href="#h" transform="rotate(141.861 48.907 64.892) scale(.75)"/><use xlink:href="#h" transform="rotate(131.69 45.708 64.54) scale(.7)"/><use xlink:href="#h" transform="rotate(121.621 42.05 64.571) scale(.65)"/><use xlink:href="#h" transform="rotate(144.168 42.923 60.824) scale(.6)"/><use xlink:href="#h" transform="rotate(-171.045 47.299 54.155) scale(.55)"/><use xlink:href="#h" transform="rotate(-158.032 48.015 50.538) scale(.5)"/><use xlink:href="#h" transform="rotate(-101.404 59.105 38.269) scale(.45)"/><use xlink:href="#h" transform="rotate(-138.239 49.74 43.06) scale(.4)"/><use xlink:href="#h" transform="rotate(-112.524 55.563 35.183) scale(.35)"/><use xlink:href="#h" transform="rotate(-57.912 83.674 8.717) scale(.3)"/><use xlink:href="#h" transform="rotate(-84.649 66.462 20.054) scale(.25)"/><use xlink:href="#h" transform="rotate(-35.23 125.382 -32.11) scale(.2)"/><use xlink:href="#h" transform="rotate(-1.171 2996.775 -2430.153) scale(.15)"/><use xlink:href="#h" transform="rotate(43.004 -49.374 107.806) scale(.1)"/><use xlink:href="#h" transform="rotate(8.506 -427.971 421.754) scale(.05)"/></g></g><g><g transform="matrix(1.2681 0 0 1.2681 -40.16 6.81)"><use xlink:href="#j" transform="rotate(33.714 114.109 91.862) scale(.95)"/><g transform="translate(-6.72 -1.792)"><use xlink:href="#j" transform="rotate(-29.289 126.049 91.6)"/><g transform="translate(1.344 1.792)"><path id="j" style="fill:url(#k);stroke-width:.264583" d="m148.333 116.467.77-13.081 14.027 17.471-41.468-6.547 26.492 17.922-12.635-24.648 16.03 23.403.498-13.659-24.676 12.179 4.555-14.045-8.417 10.934 10.5-12.697-14.244 17.531-5.282-17.813-9.13 16.129-8.72-19.906-19.535 13.812 28.023-14.044-8.31 11.728 6.616-12.414-1.486 12.091 28.382-15.556-31.843 10.739 17.64-17.433-32.052 10.373L99.88 96.368l-10.673 9.574 26.872-10.275-20.164-4.759-12.91-3.794 9.058-2.009 8.397 6.536-27.22-12.847 33.814 1.809-16.348-10.88 31.514 6.595-18.52-6.172L87.073 83.84l-5.647-29.153 38.178 20.902-29.15-20.929 20.474 9.547 5.877-17.19 1.707 22.762-2.626-27.983.412 33.268 8.804-20.216-6.449 16.95 30.557-17.48-17.309 7.94.116-6.229-7.147 11.488 15.388-16.88-7.257 21.223 34.527-15.175-31.548 20.39 12.651-17.464L146.05 75.1l-1.57-4.829-12.903 15.277 40.05-4.916-36.616 11.318 15.34.283-.918-4.882 29.924-1.665-40.432 11.983 38.328-1.082-30.075-5.59 1.008 14.743-12.826-5.667z"/><use xlink:href="#j" transform="rotate(3.278 -41.155 264.555) scale(.9)"/><use xlink:href="#j" transform="rotate(22.965 82.46 121.904) scale(.85)"/><g transform="translate(1.344 .448)"><use xlink:href="#j" transform="rotate(71.808 100.222 94.505) scale(.8)"/><use xlink:href="#j" transform="rotate(58.608 89.608 102.563) scale(.75)"/><g transform="translate(-2.24 3.136)"><use xlink:href="#j" transform="rotate(160.191 103.925 77.363) scale(.7)"/><use xlink:href="#j" transform="rotate(175.377 102.463 72.92) scale(.65)"/><use xlink:href="#j" transform="rotate(-163.565 102.477 66.41) scale(.6)"/><use xlink:href="#j" transform="rotate(171.935 95.374 69.644) scale(.55)"/><use xlink:href="#j" transform="rotate(168.495 91.398 68.61) scale(.5)"/><use xlink:href="#j" transform="rotate(-132.18 101.173 48.461) scale(.45)"/><use xlink:href="#j" transform="rotate(-115.162 104.033 37.833) scale(.4)"/><use xlink:href="#j" transform="rotate(-97.375 109.214 23.914) scale(.35)"/><use xlink:href="#j" transform="rotate(-53.948 141.314 -27.83) scale(.3)"/><use xlink:href="#j" transform="rotate(-52.743 144.15 -38.625) scale(.25)"/><use xlink:href="#j" transform="rotate(-21.965 255.329 -202.1) scale(.2)"/><use xlink:href="#j" transform="rotate(1.945 -2121.91 3146.423) scale(.15)"/><use xlink:href="#j" transform="rotate(-41.015 173.73 -100.848) scale(.1)"/><use xlink:href="#j" transform="rotate(6.915 -623.234 1020.495) scale(.05)"/></g></g></g></g></g></g></svg>